<?xml version="1.0" encoding="utf8" standalone="no"?>
<svg viewBox="0 0 48 48" xmlns="http://www.w3.org/2000/svg" xmlns:xlink="http://www.w3.org/1999/xlink">
<defs>
<linearGradient id="linearGradient5060">
<stop offset="0"/>
<stop offset="1" stop-opacity="0"/>
</linearGradient>
<linearGradient gradientUnits="userSpaceOnUse" id="linearGradient6715" x2="0" y1="-150.69685" y2="327.66039">
<stop offset="0" stop-opacity="0"/>
<stop offset=".5"/>
<stop offset="1" stop-opacity="0"/>
</linearGradient>
<linearGradient gradientUnits="userSpaceOnUse" id="linearGradient4003" x1="12.09449" x2="30.14191" y1="20.93702" y2="43.37797">
<stop offset="0" stop-color="#ebebeb"/>
<stop offset="1" stop-color="#acacac"/>
</linearGradient>
<linearGradient gradientUnits="userSpaceOnUse" id="linearGradient4015" x1="11.88988" x2="17.70064" y1="19.73569" y2="52.66626">
<stop offset="0" stop-color="#fff"/>
<stop offset="1" stop-color="#fff" stop-opacity="0"/>
</linearGradient>
<linearGradient gradientUnits="userSpaceOnUse" id="linearGradient4554" x1="11.5026" x2="35.25703" y1="14.91053" y2="5.01104">
<stop offset="0" stop-color="#8c8c8c"/>
<stop offset="1" stop-color="#8c8c8c" stop-opacity="0"/>
</linearGradient>
<radialGradient cx="605.71429" cy="486.64789" gradientTransform="matrix(-2.77439,0,0,1.96971,112.7623,-872.8854)" gradientUnits="userSpaceOnUse" id="radialGradient6719" r="117.14286" xlink:href="#linearGradient5060"/>
<radialGradient cx="605.71429" cy="486.64789" gradientTransform="matrix(2.77439,0,0,1.96971,-1891.633,-872.8854)" gradientUnits="userSpaceOnUse" id="radialGradient6717" r="117.14286" xlink:href="#linearGradient5060"/>
</defs>
<path d="m10.5,19.25c.25-7.375 4.125-11 9.25-10.875s5.875,3.375 12.625,3.375 6.75-4.5 5.625-5.75-2.375-2.5-2.375-2.5" fill="none" stroke="url(#linearGradient4554)"/>
<g transform="matrix(2.446584e-2,0,0,2.086758e-2,44.94828,38.9036)">
<path d="m-1559.2523-150.69685h1339.6335v478.35718h-1339.6335z" fill="url(#linearGradient6715)" opacity=".40206"/>
<path d="m-219.61876-150.68038v478.33079c142.87417.90045 345.40022-107.16966 345.40014-239.19618s-159.43682-239.13459-345.40014-239.13462z" fill="url(#radialGradient6717)" opacity=".40206"/>
<path d="m-1559.2523-150.68038v478.33079c-142.8742.90045-345.4002-107.16966-345.4002-239.19618s159.4368-239.13459 345.4002-239.13462z" fill="url(#radialGradient6719)" opacity=".40206"/>
</g>
<path d="m1.625,40.71967c-.3125.9375.1875,1.5625 1.125,1.625h39.75c1.4375.0625 2-.875 1.875-1.625l-3.625-19.32951c-.1875-1.25-1.25-1.9375-2.25-1.875h-30.75c-1-.0625-1.5625.8125-1.75,1.75l-4.375,19.45451z" fill="url(#linearGradient4003)" fill-rule="evenodd" stroke="#626262"/>
<g transform="translate(-1.9375,-1)">
<path d="m11.875,35.125h12.5625a.6875,.6875 0 0,1 .6875.6875v1.5625a.6875,.6875 0 0,1 -.6875.6875h-12.5625a.6875,.6875 0 0,1 -.6875-.6875v-1.5625a.6875,.6875 0 0,1 .6875-.6875" fill="#6d6d6d" fill-rule="evenodd"/>
<path d="m12,35.0625h12.0625a.6875,.6875 0 0,1 .6875.6875v.5a.6875,.6875 0 0,1 -.6875.6875h-12.0625a.6875,.6875 0 0,1 -.6875-.6875v-.5a.6875,.6875 0 0,1 .6875-.6875" fill="#e4e4e4" fill-rule="evenodd"/>
</g>
<g transform="matrix(.23318,0,0,1,4.90826,-11.55329)">
<path d="m14.13582,35.125h8.04086a2.94832,.6875 0 0,1 2.94832.6875v1.5625a2.94832,.6875 0 0,1 -2.94832.6875h-8.04086a2.94832,.6875 0 0,1 -2.94832-.6875v-1.5625a2.94832,.6875 0 0,1 2.94832-.6875" fill="#6d6d6d" fill-rule="evenodd"/>
<path d="m14.26082,35.0625h7.54086a2.94832,.6875 0 0,1 2.94832.6875v.5a2.94832,.6875 0 0,1 -2.94832.6875h-7.54086a2.94832,.6875 0 0,1 -2.94832-.6875v-.5a2.94832,.6875 0 0,1 2.94832-.6875" fill="#e4e4e4" fill-rule="evenodd"/>
</g>
<g transform="matrix(.23318,0,0,1,20.79733,-11.55329)">
<path d="m14.13582,35.125h8.04086a2.94832,.6875 0 0,1 2.94832.6875v1.5625a2.94832,.6875 0 0,1 -2.94832.6875h-8.04086a2.94832,.6875 0 0,1 -2.94832-.6875v-1.5625a2.94832,.6875 0 0,1 2.94832-.6875" fill="#6d6d6d" fill-rule="evenodd"/>
<path d="m14.26082,35.0625h7.54086a2.94832,.6875 0 0,1 2.94832.6875v.5a2.94832,.6875 0 0,1 -2.94832.6875h-7.54086a2.94832,.6875 0 0,1 -2.94832-.6875v-.5a2.94832,.6875 0 0,1 2.94832-.6875" fill="#e4e4e4" fill-rule="evenodd"/>
</g>
<g transform="matrix(.23318,0,0,1,8.79733,-11.55329)">
<path d="m14.13582,35.125h8.04086a2.94832,.6875 0 0,1 2.94832.6875v1.5625a2.94832,.6875 0 0,1 -2.94832.6875h-8.04086a2.94832,.6875 0 0,1 -2.94832-.6875v-1.5625a2.94832,.6875 0 0,1 2.94832-.6875" fill="#6d6d6d" fill-rule="evenodd"/>
<path d="m14.26082,35.0625h7.54086a2.94832,.6875 0 0,1 2.94832.6875v.5a2.94832,.6875 0 0,1 -2.94832.6875h-7.54086a2.94832,.6875 0 0,1 -2.94832-.6875v-.5a2.94832,.6875 0 0,1 2.94832-.6875" fill="#e4e4e4" fill-rule="evenodd"/>
</g>
<path d="m2.71605,40.20151c-.33331,1.24392-.39104,1.09489.93588,1.09489h37.73452c1.64186,0 2.19851.26862 1.83064-1.15739l-3.3559-18.15127c-.26826-1.40297-.67541-1.48689-2.24676-1.48689h-28.99746c-1.4133,0-1.34845.07869-1.65026,1.33776l-4.25066,18.36289z" fill="none" stroke="url(#linearGradient4015)"/>
<g transform="matrix(.23318,0,0,1,21.07875,-1)">
<path d="m14.13582,35.125h8.04086a2.94832,.6875 0 0,1 2.94832.6875v1.5625a2.94832,.6875 0 0,1 -2.94832.6875h-8.04086a2.94832,.6875 0 0,1 -2.94832-.6875v-1.5625a2.94832,.6875 0 0,1 2.94832-.6875" fill="#6d6d6d" fill-rule="evenodd"/>
<path d="m14.26082,35.0625h7.54086a2.94832,.6875 0 0,1 2.94832.6875v.5a2.94832,.6875 0 0,1 -2.94832.6875h-7.54086a2.94832,.6875 0 0,1 -2.94832-.6875v-.5a2.94832,.6875 0 0,1 2.94832-.6875" fill="#e4e4e4" fill-rule="evenodd"/>
</g>
<g transform="matrix(.23318,0,0,1,2.76625,-1)">
<path d="m14.13582,35.125h8.04086a2.94832,.6875 0 0,1 2.94832.6875v1.5625a2.94832,.6875 0 0,1 -2.94832.6875h-8.04086a2.94832,.6875 0 0,1 -2.94832-.6875v-1.5625a2.94832,.6875 0 0,1 2.94832-.6875" fill="#6d6d6d" fill-rule="evenodd"/>
<path d="m14.26082,35.0625h7.54086a2.94832,.6875 0 0,1 2.94832.6875v.5a2.94832,.6875 0 0,1 -2.94832.6875h-7.54086a2.94832,.6875 0 0,1 -2.94832-.6875v-.5a2.94832,.6875 0 0,1 2.94832-.6875" fill="#e4e4e4" fill-rule="evenodd"/>
</g>
<g transform="matrix(.23318,0,0,1,26.95375,-1)">
<path d="m14.13582,35.125h8.04086a2.94832,.6875 0 0,1 2.94832.6875v1.5625a2.94832,.6875 0 0,1 -2.94832.6875h-8.04086a2.94832,.6875 0 0,1 -2.94832-.6875v-1.5625a2.94832,.6875 0 0,1 2.94832-.6875" fill="#6d6d6d" fill-rule="evenodd"/>
<path d="m14.26082,35.0625h7.54086a2.94832,.6875 0 0,1 2.94832.6875v.5a2.94832,.6875 0 0,1 -2.94832.6875h-7.54086a2.94832,.6875 0 0,1 -2.94832-.6875v-.5a2.94832,.6875 0 0,1 2.94832-.6875" fill="#e4e4e4" fill-rule="evenodd"/>
</g>
<g transform="matrix(.23318,0,0,1,30.45375,-4)">
<path d="m14.13582,35.125h8.04086a2.94832,.6875 0 0,1 2.94832.6875v1.5625a2.94832,.6875 0 0,1 -2.94832.6875h-8.04086a2.94832,.6875 0 0,1 -2.94832-.6875v-1.5625a2.94832,.6875 0 0,1 2.94832-.6875" fill="#6d6d6d" fill-rule="evenodd"/>
<path d="m14.26082,35.0625h7.54086a2.94832,.6875 0 0,1 2.94832.6875v.5a2.94832,.6875 0 0,1 -2.94832.6875h-7.54086a2.94832,.6875 0 0,1 -2.94832-.6875v-.5a2.94832,.6875 0 0,1 2.94832-.6875" fill="#e4e4e4" fill-rule="evenodd"/>
</g>
<g transform="matrix(.23318,0,0,1,30.70375,-1)">
<path d="m14.13582,35.125h8.04086a2.94832,.6875 0 0,1 2.94832.6875v1.5625a2.94832,.6875 0 0,1 -2.94832.6875h-8.04086a2.94832,.6875 0 0,1 -2.94832-.6875v-1.5625a2.94832,.6875 0 0,1 2.94832-.6875" fill="#6d6d6d" fill-rule="evenodd"/>
<path d="m14.26082,35.0625h7.54086a2.94832,.6875 0 0,1 2.94832.6875v.5a2.94832,.6875 0 0,1 -2.94832.6875h-7.54086a2.94832,.6875 0 0,1 -2.94832-.6875v-.5a2.94832,.6875 0 0,1 2.94832-.6875" fill="#e4e4e4" fill-rule="evenodd"/>
</g>
<g transform="matrix(.23318,0,0,1,34.39125,-1)">
<path d="m14.13582,35.125h8.04086a2.94832,.6875 0 0,1 2.94832.6875v1.5625a2.94832,.6875 0 0,1 -2.94832.6875h-8.04086a2.94832,.6875 0 0,1 -2.94832-.6875v-1.5625a2.94832,.6875 0 0,1 2.94832-.6875" fill="#6d6d6d" fill-rule="evenodd"/>
<path d="m14.26082,35.0625h7.54086a2.94832,.6875 0 0,1 2.94832.6875v.5a2.94832,.6875 0 0,1 -2.94832.6875h-7.54086a2.94832,.6875 0 0,1 -2.94832-.6875v-.5a2.94832,.6875 0 0,1 2.94832-.6875" fill="#e4e4e4" fill-rule="evenodd"/>
</g>
<g transform="matrix(.23318,0,0,1,3.70375,-5.06066)">
<path d="m14.13582,35.125h8.04086a2.94832,.6875 0 0,1 2.94832.6875v1.5625a2.94832,.6875 0 0,1 -2.94832.6875h-8.04086a2.94832,.6875 0 0,1 -2.94832-.6875v-1.5625a2.94832,.6875 0 0,1 2.94832-.6875" fill="#6d6d6d" fill-rule="evenodd"/>
<path d="m14.26082,35.0625h7.54086a2.94832,.6875 0 0,1 2.94832.6875v.5a2.94832,.6875 0 0,1 -2.94832.6875h-7.54086a2.94832,.6875 0 0,1 -2.94832-.6875v-.5a2.94832,.6875 0 0,1 2.94832-.6875" fill="#e4e4e4" fill-rule="evenodd"/>
</g>
<g transform="matrix(.23318,0,0,1,7.70375,-5.06066)">
<path d="m14.13582,35.125h8.04086a2.94832,.6875 0 0,1 2.94832.6875v1.5625a2.94832,.6875 0 0,1 -2.94832.6875h-8.04086a2.94832,.6875 0 0,1 -2.94832-.6875v-1.5625a2.94832,.6875 0 0,1 2.94832-.6875" fill="#6d6d6d" fill-rule="evenodd"/>
<path d="m14.26082,35.0625h7.54086a2.94832,.6875 0 0,1 2.94832.6875v.5a2.94832,.6875 0 0,1 -2.94832.6875h-7.54086a2.94832,.6875 0 0,1 -2.94832-.6875v-.5a2.94832,.6875 0 0,1 2.94832-.6875" fill="#e4e4e4" fill-rule="evenodd"/>
</g>
<g transform="matrix(.23318,0,0,1,11.70375,-5.06066)">
<path d="m14.13582,35.125h8.04086a2.94832,.6875 0 0,1 2.94832.6875v1.5625a2.94832,.6875 0 0,1 -2.94832.6875h-8.04086a2.94832,.6875 0 0,1 -2.94832-.6875v-1.5625a2.94832,.6875 0 0,1 2.94832-.6875" fill="#6d6d6d" fill-rule="evenodd"/>
<path d="m14.26082,35.0625h7.54086a2.94832,.6875 0 0,1 2.94832.6875v.5a2.94832,.6875 0 0,1 -2.94832.6875h-7.54086a2.94832,.6875 0 0,1 -2.94832-.6875v-.5a2.94832,.6875 0 0,1 2.94832-.6875" fill="#e4e4e4" fill-rule="evenodd"/>
</g>
<g transform="matrix(.23318,0,0,1,15.70375,-5.06066)">
<path d="m14.13582,35.125h8.04086a2.94832,.6875 0 0,1 2.94832.6875v1.5625a2.94832,.6875 0 0,1 -2.94832.6875h-8.04086a2.94832,.6875 0 0,1 -2.94832-.6875v-1.5625a2.94832,.6875 0 0,1 2.94832-.6875" fill="#6d6d6d" fill-rule="evenodd"/>
<path d="m14.26082,35.0625h7.54086a2.94832,.6875 0 0,1 2.94832.6875v.5a2.94832,.6875 0 0,1 -2.94832.6875h-7.54086a2.94832,.6875 0 0,1 -2.94832-.6875v-.5a2.94832,.6875 0 0,1 2.94832-.6875" fill="#e4e4e4" fill-rule="evenodd"/>
</g>
<g transform="matrix(.23318,0,0,1,21.70375,-8.2097)">
<path d="m14.13582,35.125h8.04086a2.94832,.6875 0 0,1 2.94832.6875v1.5625a2.94832,.6875 0 0,1 -2.94832.6875h-8.04086a2.94832,.6875 0 0,1 -2.94832-.6875v-1.5625a2.94832,.6875 0 0,1 2.94832-.6875" fill="#6d6d6d" fill-rule="evenodd"/>
<path d="m14.26082,35.0625h7.54086a2.94832,.6875 0 0,1 2.94832.6875v.5a2.94832,.6875 0 0,1 -2.94832.6875h-7.54086a2.94832,.6875 0 0,1 -2.94832-.6875v-.5a2.94832,.6875 0 0,1 2.94832-.6875" fill="#e4e4e4" fill-rule="evenodd"/>
</g>
<g transform="matrix(.23318,0,0,1,19.70375,-5.06066)">
<path d="m14.13582,35.125h8.04086a2.94832,.6875 0 0,1 2.94832.6875v1.5625a2.94832,.6875 0 0,1 -2.94832.6875h-8.04086a2.94832,.6875 0 0,1 -2.94832-.6875v-1.5625a2.94832,.6875 0 0,1 2.94832-.6875" fill="#6d6d6d" fill-rule="evenodd"/>
<path d="m14.26082,35.0625h7.54086a2.94832,.6875 0 0,1 2.94832.6875v.5a2.94832,.6875 0 0,1 -2.94832.6875h-7.54086a2.94832,.6875 0 0,1 -2.94832-.6875v-.5a2.94832,.6875 0 0,1 2.94832-.6875" fill="#e4e4e4" fill-rule="evenodd"/>
</g>
<g transform="matrix(.23318,0,0,1,23.70375,-5.06066)">
<path d="m14.13582,35.125h8.04086a2.94832,.6875 0 0,1 2.94832.6875v1.5625a2.94832,.6875 0 0,1 -2.94832.6875h-8.04086a2.94832,.6875 0 0,1 -2.94832-.6875v-1.5625a2.94832,.6875 0 0,1 2.94832-.6875" fill="#6d6d6d" fill-rule="evenodd"/>
<path d="m14.26082,35.0625h7.54086a2.94832,.6875 0 0,1 2.94832.6875v.5a2.94832,.6875 0 0,1 -2.94832.6875h-7.54086a2.94832,.6875 0 0,1 -2.94832-.6875v-.5a2.94832,.6875 0 0,1 2.94832-.6875" fill="#e4e4e4" fill-rule="evenodd"/>
</g>
<g transform="matrix(.23318,0,0,1,16.79733,-11.55329)">
<path d="m14.13582,35.125h8.04086a2.94832,.6875 0 0,1 2.94832.6875v1.5625a2.94832,.6875 0 0,1 -2.94832.6875h-8.04086a2.94832,.6875 0 0,1 -2.94832-.6875v-1.5625a2.94832,.6875 0 0,1 2.94832-.6875" fill="#6d6d6d" fill-rule="evenodd"/>
<path d="m14.26082,35.0625h7.54086a2.94832,.6875 0 0,1 2.94832.6875v.5a2.94832,.6875 0 0,1 -2.94832.6875h-7.54086a2.94832,.6875 0 0,1 -2.94832-.6875v-.5a2.94832,.6875 0 0,1 2.94832-.6875" fill="#e4e4e4" fill-rule="evenodd"/>
</g>
<g transform="matrix(.23318,0,0,1,17.70375,-8.2097)">
<path d="m14.13582,35.125h8.04086a2.94832,.6875 0 0,1 2.94832.6875v1.5625a2.94832,.6875 0 0,1 -2.94832.6875h-8.04086a2.94832,.6875 0 0,1 -2.94832-.6875v-1.5625a2.94832,.6875 0 0,1 2.94832-.6875" fill="#6d6d6d" fill-rule="evenodd"/>
<path d="m14.26082,35.0625h7.54086a2.94832,.6875 0 0,1 2.94832.6875v.5a2.94832,.6875 0 0,1 -2.94832.6875h-7.54086a2.94832,.6875 0 0,1 -2.94832-.6875v-.5a2.94832,.6875 0 0,1 2.94832-.6875" fill="#e4e4e4" fill-rule="evenodd"/>
</g>
<g transform="matrix(.23318,0,0,1,12.79733,-11.55329)">
<path d="m14.13582,35.125h8.04086a2.94832,.6875 0 0,1 2.94832.6875v1.5625a2.94832,.6875 0 0,1 -2.94832.6875h-8.04086a2.94832,.6875 0 0,1 -2.94832-.6875v-1.5625a2.94832,.6875 0 0,1 2.94832-.6875" fill="#6d6d6d" fill-rule="evenodd"/>
<path d="m14.26082,35.0625h7.54086a2.94832,.6875 0 0,1 2.94832.6875v.5a2.94832,.6875 0 0,1 -2.94832.6875h-7.54086a2.94832,.6875 0 0,1 -2.94832-.6875v-.5a2.94832,.6875 0 0,1 2.94832-.6875" fill="#e4e4e4" fill-rule="evenodd"/>
</g>
<g transform="matrix(.23318,0,0,1,13.70375,-8.2097)">
<path d="m14.13582,35.125h8.04086a2.94832,.6875 0 0,1 2.94832.6875v1.5625a2.94832,.6875 0 0,1 -2.94832.6875h-8.04086a2.94832,.6875 0 0,1 -2.94832-.6875v-1.5625a2.94832,.6875 0 0,1 2.94832-.6875" fill="#6d6d6d" fill-rule="evenodd"/>
<path d="m14.26082,35.0625h7.54086a2.94832,.6875 0 0,1 2.94832.6875v.5a2.94832,.6875 0 0,1 -2.94832.6875h-7.54086a2.94832,.6875 0 0,1 -2.94832-.6875v-.5a2.94832,.6875 0 0,1 2.94832-.6875" fill="#e4e4e4" fill-rule="evenodd"/>
</g>
<g transform="matrix(.23318,0,0,1,9.70375,-8.2097)">
<path d="m14.13582,35.125h8.04086a2.94832,.6875 0 0,1 2.94832.6875v1.5625a2.94832,.6875 0 0,1 -2.94832.6875h-8.04086a2.94832,.6875 0 0,1 -2.94832-.6875v-1.5625a2.94832,.6875 0 0,1 2.94832-.6875" fill="#6d6d6d" fill-rule="evenodd"/>
<path d="m14.26082,35.0625h7.54086a2.94832,.6875 0 0,1 2.94832.6875v.5a2.94832,.6875 0 0,1 -2.94832.6875h-7.54086a2.94832,.6875 0 0,1 -2.94832-.6875v-.5a2.94832,.6875 0 0,1 2.94832-.6875" fill="#e4e4e4" fill-rule="evenodd"/>
</g>
<g transform="matrix(.23318,0,0,1,5.70375,-8.2097)">
<path d="m14.13582,35.125h8.04086a2.94832,.6875 0 0,1 2.94832.6875v1.5625a2.94832,.6875 0 0,1 -2.94832.6875h-8.04086a2.94832,.6875 0 0,1 -2.94832-.6875v-1.5625a2.94832,.6875 0 0,1 2.94832-.6875" fill="#6d6d6d" fill-rule="evenodd"/>
<path d="m14.26082,35.0625h7.54086a2.94832,.6875 0 0,1 2.94832.6875v.5a2.94832,.6875 0 0,1 -2.94832.6875h-7.54086a2.94832,.6875 0 0,1 -2.94832-.6875v-.5a2.94832,.6875 0 0,1 2.94832-.6875" fill="#e4e4e4" fill-rule="evenodd"/>
</g>
<g transform="matrix(.23318,0,0,1,28.63055,-8.12132)">
<path d="m14.13582,35.125h8.04086a2.94832,.6875 0 0,1 2.94832.6875v1.5625a2.94832,.6875 0 0,1 -2.94832.6875h-8.04086a2.94832,.6875 0 0,1 -2.94832-.6875v-1.5625a2.94832,.6875 0 0,1 2.94832-.6875" fill="#6d6d6d" fill-rule="evenodd"/>
<path d="m14.26082,35.0625h7.54086a2.94832,.6875 0 0,1 2.94832.6875v.5a2.94832,.6875 0 0,1 -2.94832.6875h-7.54086a2.94832,.6875 0 0,1 -2.94832-.6875v-.5a2.94832,.6875 0 0,1 2.94832-.6875" fill="#e4e4e4" fill-rule="evenodd"/>
</g>
<g transform="matrix(.23318,0,0,1,32.63055,-8.12132)">
<path d="m14.13582,35.125h8.04086a2.94832,.6875 0 0,1 2.94832.6875v1.5625a2.94832,.6875 0 0,1 -2.94832.6875h-8.04086a2.94832,.6875 0 0,1 -2.94832-.6875v-1.5625a2.94832,.6875 0 0,1 2.94832-.6875" fill="#6d6d6d" fill-rule="evenodd"/>
<path d="m14.26082,35.0625h7.54086a2.94832,.6875 0 0,1 2.94832.6875v.5a2.94832,.6875 0 0,1 -2.94832.6875h-7.54086a2.94832,.6875 0 0,1 -2.94832-.6875v-.5a2.94832,.6875 0 0,1 2.94832-.6875" fill="#e4e4e4" fill-rule="evenodd"/>
</g>
<g transform="matrix(1,0,0,1.45,.85096,-9.29313)">
<path d="m30.75914,21.57188a1.23744,.47414 0 0,1 1.23744.47414v.55433a1.23744,.47414 0 0,1 -1.23744.47414 1.23744,.47414 0 0,1 -1.23744-.47414v-.55433a1.23744,.47414 0 0,1 1.23744-.47414" fill="#787843" fill-rule="evenodd"/>
<path d="m34.75915,21.57188a1.23744,.47414 0 0,1 1.23744.47414v.55433a1.23744,.47414 0 0,1 -1.23744.47414 1.23744,.47414 0 0,1 -1.23744-.47414v-.55433a1.23744,.47414 0 0,1 1.23744-.47414" fill="#787843" fill-rule="evenodd"/>
<path d="m31.02431,21.83705a1.23744,.47414 0 0,1 1.23744.47414v.55433a1.23744,.47414 0 0,1 -1.23744.47414 1.23744,.47414 0 0,1 -1.23744-.47414v-.55433a1.23744,.47414 0 0,1 1.23744-.47414" fill="#e7e745" fill-rule="evenodd"/>
<path d="m35.02431,21.83705a1.23744,.47414 0 0,1 1.23744.47414v.55433a1.23744,.47414 0 0,1 -1.23744.47414 1.23744,.47414 0 0,1 -1.23744-.47414v-.55433a1.23744,.47414 0 0,1 1.23744-.47414" fill="#e7e745" fill-rule="evenodd"/>
</g>
</svg>
