<?xml version="1.0" encoding="utf8" standalone="no"?>
<svg viewBox="0 0 48 36" xmlns="http://www.w3.org/2000/svg">
<defs>
<linearGradient gradientUnits="userSpaceOnUse" id="linearGradient1341" x1="74.91071" x2="84.91071" y1="32.36218" y2="47.45147">
<stop offset="0" stop-color="#236b0d"/>
<stop offset="1" stop-color="#081b04"/>
</linearGradient>
<linearGradient gradientUnits="userSpaceOnUse" id="linearGradient1343" x1="73.83929" x2="76.875" y1="34.42857" y2="43.71428">
<stop offset="0" stop-color="#2edc32"/>
<stop offset="1" stop-color="#11661d"/>
</linearGradient>
<linearGradient gradientUnits="userSpaceOnUse" id="linearGradient1345" x1="72.94643" x2="85" y1="35.58929" y2="47.375">
<stop offset="0" stop-color="#97ff82"/>
<stop offset="1" stop-color="#ceff24" stop-opacity="0"/>
</linearGradient>
</defs>
<g transform="matrix(1.669803,0,0,1.669803,-109.60419,-45.250127)">
<path d="m92.84375,27.40625c-.13452.02538-.26225.0786-.375.15625l-17.4375,11.625-7.4375-5.59375c-.37401-.28054-.89393-.25858-1.24295.0525s-.4304.82506-.19455,1.22875l8,13c.15454.26849.42669.44835.73427.48526s.61456-.07345.82823-.29776l18-19c.30093-.30499.36943-.76985.16929-1.1487s-.62275-.58424-1.04429-.50755z" fill="url(#linearGradient1341)"/>
<path d="m92.96875,27.96875c-.06678.00466-.13128.02616-.1875.0625l-17.78125,11.84375-7.75-5.8125c-.1467-.16396-.39854-.17795-.5625-.03125s-.17795.39854-.03125.5625l8,13c.06494.10448.17471.17287.29711.18511s.24355-.03306.32789-.12261l18-19c.12804-.11568.1665-.30091.09509-.458s-.23625-.24991-.40759-.2295z" fill="url(#linearGradient1343)" transform="translate(0,-1.281738e-2)"/>
<path d="m92.90625,28.46875-17.90625,11.9375-7.90625-5.9375 7.9375,12.875 17.875-18.875z" fill="url(#linearGradient1345)" transform="translate(0,-1.281738e-2)"/>
</g>
</svg>
