<?xml version="1.0" encoding="utf8" standalone="no"?>
<svg viewBox="0 0 175 175" xmlns="http://www.w3.org/2000/svg">
<path d="m32.79409,161.91122c-3.32466-.4769-6.21751-1.14686-6.42854-1.48883s-1.18877-1.90749-2.1728-3.47891c-2.76566-4.4166-4.69573-9.18736-7.80235-19.28572-5.53778-18.0012-6.61541-22.68201-5.87422-25.5163 1.14448-4.37654 11.06705-10.56117 17.24602-10.74931 4.98539-.15179 5.56538.27748 8.4657,6.26561 1.71249,3.53572 4.22322,9.16072 5.57935,12.5s3.34085,6.07143 4.41048,6.07143 5.09952-4.98214 8.9553-11.07143 7.61746-11.75477 8.35929-12.58998 2.17631-3.0852 3.18774-5c4.33699-8.21056 39.47193-56.40259 49.92719-68.48145 2.38035-2.75 4.32943-5.47557 4.33127-6.05684s3.37836-3.24323 7.50336-5.91551c5.6361-3.6512 9.63262-5.06048 16.08128-5.67068 11.9236-1.12824 13.04776-.04628 8.02657,7.72542-2.25508,3.49038-5.31958,7.6319-6.80997,9.20333s-5.91176,7.03571-9.82527,12.14285-7.81936,9.92858-8.67967,10.71429-3.07933,3.67857-4.93117,6.42857-3.71937,5.32143-4.15009,5.71429c-3.73503,3.40678-43.81717,59.20124-47.2084,65.71428-1.0228,1.96429-2.24548,3.89286-2.71714,4.28572s-4.58082,6.31791-9.13146,13.16681-8.96574,12.88012-9.81136,13.40273c-3.09991,1.91584-10.64125,2.81436-16.53108,1.96959l-3e-005,4e-005z" fill="#ed1c24"/>
</svg>
